<?xml version="1.0" standalone="no"?>
<!DOCTYPE svg PUBLIC "-//W3C//DTD SVG 20010904//EN"
 "http://www.w3.org/TR/2001/REC-SVG-20010904/DTD/svg10.dtd">
<svg version="1.0" xmlns="http://www.w3.org/2000/svg"
 width="1200.000000pt" height="900.000000pt" viewBox="0 0 1200.000000 900.000000"
 preserveAspectRatio="xMidYMid meet">

<g transform="translate(0.000000,900.000000) scale(0.100000,-0.100000)"
fill="#000000" stroke="none">
<path d="M7597 8003 c-34 -54 -54 -122 -73 -243 -20 -134 -48 -246 -79 -318
-14 -31 -18 -48 -10 -38 28 37 73 170 95 281 43 219 51 251 75 303 28 61 25
67 -8 15z"/>
<path d="M2712 7543 c-109 -257 -110 -568 -1 -829 72 -173 222 -358 375 -464
74 -52 214 -122 267 -136 31 -7 31 -7 3 -79 -23 -59 -20 -164 5 -233 12 -31
24 -74 26 -95 5 -36 1 -42 -75 -122 -127 -131 -177 -250 -176 -416 1 -151 57
-283 170 -401 79 -83 75 -105 -31 -176 -95 -63 -228 -202 -211 -219 3 -4 22
-7 41 -7 19 -1 35 -4 35 -7 0 -3 35 -23 77 -44 91 -45 212 -159 262 -247 141
-250 108 -555 -85 -767 l-36 -41 47 -20 c47 -20 135 -43 208 -55 l37 -6 0 -64
0 -65 40 0 40 0 1 63 c1 34 1 64 1 67 0 3 23 6 51 8 29 1 85 11 125 22 276 76
478 291 547 581 43 184 -5 434 -114 592 -44 65 -131 157 -147 157 -8 0 -14 5
-14 10 0 6 -24 25 -53 44 -29 19 -59 41 -66 50 -7 9 -21 16 -30 17 -10 0 -11
2 -3 6 6 2 12 13 12 24 0 10 30 51 66 90 110 121 154 232 154 388 -1 109 -10
142 -68 239 -41 69 -100 136 -179 203 -50 42 -56 79 -20 121 21 24 23 36 22
130 0 89 -4 110 -26 159 -59 125 -157 192 -282 193 -40 1 -95 -2 -123 -6 -42
-6 -51 -5 -51 8 0 33 48 52 158 59 96 7 111 5 155 -14 27 -12 67 -36 89 -53
22 -17 37 -28 33 -23 -10 10 41 37 55 28 6 -3 7 -1 3 5 -4 7 6 15 26 20 35 10
99 65 111 95 3 9 14 17 23 17 15 0 15 2 -2 22 -10 12 -13 18 -6 14 6 -4 12 -3
12 1 0 5 -6 15 -12 22 -8 9 -8 11 -2 8 8 -5 11 2 10 18 0 16 -6 23 -14 20 -7
-3 -10 0 -7 5 3 5 -3 15 -15 22 -11 7 -20 17 -20 22 0 5 10 1 21 -10 16 -14
21 -15 17 -4 -2 8 -22 24 -43 35 l-38 20 49 6 c46 6 45 6 -22 7 -156 4 -463
-11 -461 -22 1 -6 -6 -10 -15 -8 -9 1 -33 -7 -52 -18 -20 -11 -36 -17 -36 -14
0 4 -11 -1 -25 -10 -13 -9 -36 -16 -50 -16 -14 0 -28 -6 -31 -14 -3 -8 -12
-12 -20 -9 -8 3 -14 0 -14 -6 0 -6 -9 -11 -19 -11 -11 0 -27 -7 -36 -16 -8 -9
-22 -13 -30 -10 -8 3 -14 1 -12 -5 1 -6 -16 -20 -38 -32 -58 -32 -85 -59 -85
-84 0 -12 -4 -25 -10 -28 -6 -3 -8 2 -5 12 3 10 0 7 -7 -7 -6 -14 -13 -27 -14
-28 -8 -12 -133 86 -214 167 -138 140 -222 291 -273 491 -18 70 -21 114 -21
245 0 143 3 171 27 259 15 54 36 119 47 144 11 25 19 47 16 49 -2 2 -12 -18
-24 -44z m788 -1393 c0 -5 -4 -10 -10 -10 -5 0 -10 5 -10 10 0 6 5 10 10 10 6
0 10 -4 10 -10z m138 -88 c2 -7 -3 -12 -12 -12 -9 0 -16 7 -16 16 0 17 22 14
28 -4z m90 -413 l2 -397 68 -18 c84 -22 102 -31 102 -50 0 -11 -5 -14 -17 -9
-28 10 -126 35 -141 35 -10 0 -13 -45 -11 -234 1 -180 -2 -239 -13 -257 -11
-21 -14 12 -18 241 l-5 264 -140 37 c-166 44 -175 47 -175 65 0 20 8 18 167
-25 79 -21 145 -36 147 -34 10 10 -7 588 -18 595 -6 4 -41 14 -78 23 -70 18
-99 38 -81 56 7 7 32 4 80 -10 100 -30 96 -32 91 50 -5 67 -4 70 16 67 21 -3
21 -4 24 -399z m186 380 c-3 -5 -10 -7 -15 -3 -5 3 -7 10 -3 15 3 5 10 7 15 3
5 -3 7 -10 3 -15z m-344 -49 c0 -5 -4 -10 -10 -10 -5 0 -10 5 -10 10 0 6 5 10
10 10 6 0 10 -4 10 -10z m200 -70 c0 -5 -4 -10 -10 -10 -5 0 -10 5 -10 10 0 6
5 10 10 10 6 0 10 -4 10 -10z m10 -50 c0 -5 -5 -10 -11 -10 -5 0 -7 5 -4 10 3
6 8 10 11 10 2 0 4 -4 4 -10z m-360 -40 c0 -5 -4 -10 -10 -10 -5 0 -10 5 -10
10 0 6 5 10 10 10 6 0 10 -4 10 -10z m65 -80 c3 -5 -1 -10 -9 -10 -9 0 -16 5
-16 10 0 6 4 10 9 10 6 0 13 -4 16 -10z m180 -50 c3 -5 1 -10 -4 -10 -6 0 -11
5 -11 10 0 6 2 10 4 10 3 0 8 -4 11 -10z m187 -5 c0 -5 -5 -11 -11 -13 -6 -2
-11 4 -11 13 0 9 5 15 11 13 6 -2 11 -8 11 -13z m18 -165 c0 -5 -4 -10 -10
-10 -5 0 -10 5 -10 10 0 6 5 10 10 10 6 0 10 -4 10 -10z m0 -230 c0 -5 -7 -10
-15 -10 -8 0 -15 5 -15 10 0 6 7 10 15 10 8 0 15 -4 15 -10z m-660 -50 c0 -5
-4 -10 -10 -10 -5 0 -10 5 -10 10 0 6 5 10 10 10 6 0 10 -4 10 -10z m570 -150
c0 -5 -7 -10 -16 -10 -8 0 -12 5 -9 10 3 6 10 10 16 10 5 0 9 -4 9 -10z m186
-105 c10 -24 -6 -38 -21 -18 -7 10 -11 21 -9 25 8 13 24 9 30 -7z m-626 -51
c0 -8 -4 -12 -10 -9 -5 3 -10 10 -10 16 0 5 5 9 10 9 6 0 10 -7 10 -16z m387
-321 c-4 -38 -7 -119 -7 -182 0 -63 -2 -112 -4 -110 -2 2 -6 84 -10 182 -6
161 -5 177 10 177 15 0 16 -9 11 -67z m-128 -279 c29 -8 51 -17 49 -20 -8 -7
-142 26 -153 38 -11 12 14 7 104 -18z"/>
<path d="M4291 7401 c-11 -21 -32 -101 -45 -177 -14 -77 -32 -161 -40 -189 -9
-27 -14 -51 -11 -53 8 -8 53 157 69 252 9 55 25 123 36 153 22 63 18 68 -9 14z"/>
<path d="M5925 7293 c-95 -51 -170 -147 -200 -258 -40 -147 7 -310 120 -414
35 -31 69 -53 90 -57 l35 -6 0 -74 c0 -41 -4 -74 -9 -74 -44 0 -181 -27 -264
-51 -133 -40 -225 -83 -348 -163 -99 -66 -109 -64 -50 8 12 14 -1 10 -49 -14
-102 -51 -256 -157 -194 -133 12 4 15 3 10 -6 -4 -6 -15 -9 -24 -7 -22 7 -150
-103 -238 -204 -394 -455 -517 -1069 -328 -1640 132 -397 404 -736 757 -942
l77 -45 -50 -76 c-60 -94 -184 -224 -267 -284 l-62 -44 25 -36 c41 -61 58
-137 56 -248 l-2 -100 46 -67 45 -68 57 37 c296 189 528 477 641 796 41 118
56 178 85 345 28 161 57 237 107 275 68 51 132 44 192 -23 56 -61 63 -113 49
-354 -7 -110 -17 -289 -23 -396 -10 -192 -11 -196 -40 -235 -85 -117 -150
-225 -216 -356 -40 -81 -73 -151 -73 -157 0 -5 -18 -56 -41 -112 -22 -56 -38
-104 -35 -107 8 -8 69 125 121 262 47 122 116 255 208 400 49 76 52 78 55 50
2 -16 -1 -178 -7 -360 -6 -181 -11 -437 -11 -567 l0 -237 -27 -3 -28 -3 -7
-145 c-7 -131 -10 -150 -35 -199 l-28 -53 -167 1 c-113 1 -169 -2 -173 -9 -4
-6 -14 -9 -22 -6 -8 4 -23 -4 -33 -16 -15 -18 -21 -20 -31 -11 -10 10 -17 9
-32 -5 -18 -16 -20 -16 -30 -1 -9 14 -15 15 -35 6 -20 -9 -26 -8 -34 6 -6 11
-16 16 -28 12 -12 -4 -25 2 -37 17 -10 13 -27 28 -38 34 -10 6 -23 19 -29 29
-6 10 -19 27 -28 37 -10 10 -18 25 -18 33 0 9 -10 29 -21 45 -12 16 -19 36
-16 44 4 9 -3 32 -14 51 -17 28 -19 38 -9 50 10 12 8 22 -10 50 l-22 36 20 15
c20 14 20 16 4 43 -9 17 -30 33 -47 38 -30 9 -30 9 18 17 51 8 53 12 35 51 -9
19 -19 25 -43 25 -52 0 -94 11 -89 24 3 7 31 10 84 8 83 -4 90 0 70 39 -9 15
-22 19 -68 19 l-57 0 0 132 c0 166 -22 243 -103 363 l-54 79 5 65 c12 155 -32
276 -139 382 -41 41 -64 71 -64 86 0 13 4 23 9 23 5 0 17 19 26 43 20 48 22
129 4 173 -7 16 -11 33 -11 37 9 41 -164 198 -183 166 -9 -14 -25 -11 -25 6 0
26 -88 19 -148 -11 -56 -28 -91 -64 -124 -128 -30 -57 -30 -163 0 -230 12 -27
22 -57 22 -68 0 -10 -23 -40 -51 -66 -60 -55 -105 -117 -123 -170 -16 -43 -13
-43 -145 0 -51 17 -116 31 -145 32 l-51 1 0 -290 0 -289 55 -17 c60 -19 65
-32 24 -62 -13 -10 -24 -27 -24 -37 0 -9 -9 -24 -21 -31 -25 -18 -38 -73 -39
-168 l0 -74 54 -71 c29 -39 115 -152 190 -250 75 -99 136 -183 136 -188 0 -5
-29 -40 -65 -78 -36 -38 -65 -71 -65 -72 0 -2 28 -4 63 -5 34 -2 95 -5 136 -9
l74 -6 -61 -34 c-34 -19 -98 -68 -142 -109 -56 -51 -90 -75 -106 -75 -16 0
-23 -4 -19 -11 5 -7 -3 -9 -21 -7 -22 2 -38 18 -78 78 -96 145 -267 290 -413
351 -29 12 -50 25 -48 30 3 4 -13 13 -35 19 -22 6 -40 13 -40 16 0 3 9 23 20
44 26 50 12 51 -40 1 -24 -23 -43 -34 -47 -28 -4 6 -1 13 5 15 7 2 12 8 12 12
0 16 172 304 198 332 14 15 33 30 42 33 12 4 19 21 23 57 4 28 11 56 17 62 15
15 12 26 -5 20 -13 -5 -15 60 -15 554 0 615 5 572 -60 572 l-28 0 -7 -107 c-4
-60 -5 -337 -2 -617 l6 -509 -53 -66 c-70 -87 -147 -195 -180 -253 l-27 -46
-50 34 c-28 19 -55 34 -59 34 -5 0 -12 -29 -15 -65 -5 -39 -12 -65 -19 -65
-14 0 15 379 39 504 8 44 12 82 9 85 -9 9 -44 -41 -51 -72 -7 -32 -23 -46 -23
-20 0 10 7 61 15 113 17 110 18 143 6 136 -12 -8 -37 -103 -76 -293 -40 -194
-81 -349 -101 -378 -12 -17 -14 111 -14 878 0 557 4 897 9 897 6 0 62 60 126
134 96 111 120 133 140 130 15 -1 23 2 19 8 -4 6 2 8 17 3 17 -4 20 -3 10 3
-15 11 -6 36 10 26 5 -3 8 0 7 8 -2 7 5 12 14 12 10 -1 16 3 15 10 -1 6 7 10
18 9 11 -1 14 0 8 3 -19 8 -16 22 7 29 11 4 19 12 18 18 -4 20 12 67 22 67 6
0 10 9 10 19 0 11 5 23 10 26 7 4 7 13 0 26 -8 13 -7 19 1 19 6 0 13 -9 16
-20 4 -13 11 -19 22 -16 25 8 44 -9 37 -32 -5 -13 -14 -19 -26 -17 -10 2 -21
-2 -23 -9 -3 -8 1 -13 10 -12 9 0 18 -5 21 -13 3 -10 -1 -12 -18 -8 -16 4 -20
3 -12 -5 15 -15 45 -1 38 17 -6 16 26 39 39 27 5 -4 5 1 2 11 -4 10 -2 17 5
17 7 0 3 7 -8 16 -16 13 -16 15 -2 10 10 -3 20 -1 23 4 4 6 3 10 -2 10 -4 0
-8 28 -7 63 2 112 -68 258 -176 368 -50 51 -85 76 -152 107 -101 49 -239 77
-332 69 -38 -3 -54 -2 -45 4 23 14 -9 11 -72 -7 -207 -61 -385 -247 -434 -455
-19 -82 -19 -236 0 -318 25 -105 89 -216 175 -302 74 -74 98 -89 278 -172 26
-12 29 -43 5 -70 -18 -19 -17 -19 21 -3 50 21 66 34 66 56 0 25 -27 45 -105
76 -140 55 -250 151 -319 277 -50 90 -57 205 -11 167 10 -8 15 -9 15 -1 0 13
29 14 50 1 12 -8 12 -11 -3 -28 -9 -10 -14 -22 -11 -25 4 -4 13 1 20 11 11 14
13 14 14 2 0 -13 1 -13 10 0 8 13 10 12 10 -2 0 -21 11 -23 27 -7 13 13 36 3
28 -12 -4 -5 11 -10 32 -10 37 -1 50 -3 66 -9 4 -1 21 -4 37 -5 42 -4 42 -3
31 -23 -6 -12 -6 -23 1 -33 8 -12 9 -11 5 3 -9 25 5 30 21 7 10 -14 17 -17 22
-10 8 13 40 4 40 -11 0 -6 -8 -4 -17 3 -16 13 -17 12 -4 -3 10 -13 18 -15 31
-8 10 6 28 10 38 10 17 0 21 -8 24 -57 10 -130 8 -1262 -1 -1268 -16 -9 -159
42 -205 74 -149 103 -229 282 -200 445 8 39 7 57 0 60 -7 3 -6 8 2 14 7 5 24
32 37 60 34 73 95 153 144 186 53 37 53 44 0 14 -90 -50 -183 -180 -208 -289
-13 -54 -14 -186 -2 -193 5 -3 9 -17 9 -30 0 -37 55 -148 96 -193 20 -22 36
-45 36 -51 0 -6 -15 -40 -34 -74 -38 -71 -103 -230 -112 -276 -5 -25 1 -40 37
-88 24 -32 50 -65 57 -74 12 -13 12 -12 4 4 -6 13 -5 27 4 44 7 13 11 33 9 43
-2 11 0 19 5 19 5 0 7 7 4 15 -4 8 -2 15 4 15 6 0 8 8 5 19 -2 10 1 24 9 32 7
8 14 23 15 34 3 33 8 52 19 66 6 8 16 34 23 58 7 25 19 54 27 66 8 12 11 25 7
29 -4 4 13 -2 38 -12 25 -11 71 -26 102 -33 l57 -12 -2 -311 c-3 -255 -5 -310
-17 -308 -10 2 -12 -10 -8 -57 3 -32 2 -62 -1 -66 -4 -3 -12 -25 -19 -48 l-11
-42 -1 35 c-1 33 -30 262 -81 635 -12 88 -26 164 -31 170 -15 15 -11 -53 21
-308 51 -423 50 -397 26 -434 -25 -39 -32 -41 -40 -10 -8 33 -63 113 -90 131
-21 13 -18 3 26 -95 28 -61 48 -112 46 -115 -3 -2 -35 53 -72 123 -78 147
-168 286 -251 391 -89 111 -96 96 -17 -37 35 -61 43 -81 39 -108 -5 -29 -3
-34 19 -39 20 -5 44 -30 44 -47 0 -2 -24 4 -52 14 -53 19 -178 23 -178 7 0 -5
-8 -8 -17 -8 -13 0 -14 -3 -6 -11 8 -8 8 -20 3 -35 -8 -19 -6 -22 8 -17 15 6
15 5 3 -10 -10 -13 -10 -17 -1 -17 10 0 10 -3 0 -15 -11 -13 -10 -14 4 -9 9 3
16 2 16 -4 0 -6 -6 -13 -12 -15 -7 -3 -4 -6 6 -6 19 -1 19 -1 1 -14 -12 -10
-14 -16 -7 -21 18 -11 14 -26 -4 -19 -14 5 -15 3 -4 -18 7 -13 18 -28 24 -32
7 -5 3 -7 -10 -4 -13 3 -21 -1 -21 -9 0 -7 4 -11 9 -8 4 3 8 -1 9 -8 5 -64 3
-80 -11 -88 -10 -7 -2 -10 30 -11 57 -1 94 -6 147 -20 23 -6 52 -9 63 -6 16 4
25 -6 50 -59 16 -35 30 -67 30 -70 0 -4 -17 -34 -39 -68 -21 -34 -50 -85 -65
-113 l-26 -53 -155 0 c-154 0 -209 -12 -115 -25 27 -4 52 -11 56 -16 3 -5 48
-9 100 -9 69 0 94 -3 93 -12 -1 -41 -38 -153 -50 -154 -8 0 -34 -2 -59 -3 -38
-3 -41 -4 -20 -11 37 -12 3580 -12 3580 0 0 17 -24 65 -62 121 -38 58 -103
113 -171 145 -23 11 -33 21 -26 25 7 4 -15 13 -47 19 -45 10 -75 10 -126 2
-59 -10 -169 -47 -221 -74 -24 -12 -54 7 -104 68 -49 58 -146 130 -248 183
-92 47 -87 52 15 15 l72 -26 346 4 c342 5 405 10 423 40 6 9 38 9 146 -1 209
-19 205 -18 201 -55 -3 -27 -8 -32 -38 -37 -34 -6 -34 -6 10 -8 l46 -1 10 69
c29 181 153 325 323 375 31 9 91 16 138 16 l83 0 -21 21 c-17 17 -20 29 -15
57 3 21 7 43 8 50 1 6 5 12 10 12 5 0 6 5 3 10 -3 6 0 10 7 10 9 0 9 3 2 8 -6
4 -10 24 -9 44 2 33 0 36 -13 25 -13 -10 -14 -9 -4 10 8 15 9 24 2 28 -6 4
-10 23 -9 43 1 20 -1 71 -4 112 -4 41 -9 120 -12 175 -3 55 -8 125 -11 155 -3
30 -7 204 -9 387 -1 182 -6 336 -9 342 -13 21 -15 605 -2 673 19 100 77 177
128 169 3 0 9 13 13 29 10 47 77 141 168 237 78 83 164 191 190 238 5 11 -16
-3 -49 -31 -92 -79 -125 -99 -134 -84 -4 7 -12 10 -18 6 -6 -3 -14 -1 -17 5
-4 5 -13 8 -21 5 -8 -3 -17 1 -21 9 -5 13 -7 13 -19 -2 -13 -16 -15 -17 -26
-2 -7 9 -19 14 -27 11 -9 -3 -11 0 -6 8 5 8 4 11 -3 6 -15 -9 -63 14 -90 44
-13 14 -20 19 -16 11 4 -7 3 -12 -2 -9 -44 20 -64 33 -64 40 0 5 -10 19 -22
32 -13 13 -30 36 -39 52 -8 16 -23 28 -32 28 -9 -1 -14 2 -11 7 8 14 -16 50
-28 43 -7 -4 -8 -3 -4 4 12 19 -3 35 -20 21 -8 -6 -14 -8 -14 -3 0 5 -7 -2
-16 -14 -14 -20 -23 -22 -124 -22 -69 0 -111 -4 -116 -11 -4 -7 -9 -8 -13 -1
-3 5 -96 12 -211 16 -231 7 -841 8 -848 1 -3 -2 18 -35 46 -72 29 -38 72 -98
97 -135 25 -37 79 -105 121 -152 41 -47 92 -111 114 -143 43 -61 80 -163 80
-220 l0 -34 -47 33 c-27 18 -95 80 -153 138 -154 153 -238 288 -302 487 l-33
103 -211 0 c-172 0 -214 3 -224 14 -10 12 -1 20 52 47 42 21 89 58 143 113
116 117 169 227 200 410 36 213 79 287 200 347 59 29 69 31 152 27 101 -4 153
-24 225 -88 93 -81 138 -210 139 -392 0 -65 2 -118 5 -118 4 0 28 16 55 36
194 142 368 76 500 -191 41 -83 62 -116 88 -133 19 -12 41 -20 48 -18 7 3 19
-2 28 -10 14 -14 20 -11 16 10 -1 5 5 6 14 3 22 -9 18 6 -6 22 -18 10 -19 15
-8 22 11 8 9 14 -11 32 -26 24 -38 57 -20 57 6 0 8 10 4 24 -4 16 -1 25 10 29
11 4 14 0 11 -15 -3 -11 -1 -17 3 -14 4 4 7 13 7 19 0 7 9 11 20 9 18 -2 19
-2 3 8 -10 6 -18 16 -18 23 0 8 3 7 9 -2 10 -16 31 -6 31 15 0 8 5 12 10 9 6
-3 10 -1 10 5 0 7 7 9 15 6 10 -3 18 1 22 12 3 9 15 25 27 35 12 10 14 16 6
12 -8 -3 -6 0 4 7 10 7 26 21 35 31 8 9 21 17 28 17 7 0 13 6 13 14 0 8 3 16
8 18 4 2 31 33 60 69 l53 66 121 32 c279 74 584 234 750 393 24 24 40 40 34
36 -5 -5 -22 -8 -37 -8 -15 0 -31 -4 -34 -10 -7 -11 -55 -10 -55 1 0 4 -8 6
-17 5 -11 0 -18 6 -17 15 1 11 -5 14 -22 11 -19 -3 -23 -1 -19 17 2 12 -1 21
-6 21 -6 0 -7 5 -4 10 3 6 -1 10 -9 10 -8 0 -18 5 -22 12 -4 7 -3 8 4 4 8 -5
12 4 12 29 0 23 5 35 13 34 27 -3 34 2 35 30 0 17 6 40 13 53 7 13 12 26 11
31 -1 4 4 7 11 7 8 0 22 9 32 20 10 11 25 20 34 20 9 0 22 9 29 20 14 24 40
25 87 6 49 -21 159 -109 149 -119 -3 -2 2 -7 10 -10 9 -4 27 7 45 29 l31 35
-97 74 c-54 41 -120 93 -147 117 -43 38 -47 46 -35 59 8 8 19 24 25 34 32 57
39 70 44 75 3 3 24 42 46 87 23 45 44 80 48 76 3 -3 6 -3 6 1 0 8 -114 62
-151 71 -24 6 -30 0 -69 -67 -24 -40 -58 -94 -76 -119 -37 -50 -41 -65 -21
-72 23 -9 -250 -267 -359 -340 -97 -65 -228 -131 -309 -157 -22 -7 -42 -16
-45 -21 -9 -13 -178 -88 -184 -81 -3 3 -6 0 -6 -6 0 -7 -7 -12 -15 -12 -8 0
-15 -4 -15 -9 0 -4 -21 -11 -47 -15 -27 -3 -59 -9 -73 -12 -68 -16 -271 -7
-349 16 -18 5 -36 9 -40 8 -3 -1 -17 3 -31 9 -47 20 -105 41 -170 61 -81 26
-127 49 -140 70 -5 9 -10 13 -10 9 0 -9 -37 27 -88 84 -12 14 -25 36 -27 48
-2 13 -8 28 -14 35 -31 37 -59 224 -41 272 6 15 11 42 12 61 1 18 5 33 11 33
5 0 7 7 3 15 -3 8 -1 15 5 15 6 0 8 4 5 8 -7 12 79 65 154 94 82 32 175 55
287 71 87 13 88 13 91 42 2 19 17 43 39 63 29 26 44 32 82 33 25 0 54 4 65 8
18 7 18 8 0 26 -11 10 -19 21 -19 25 0 4 -8 14 -17 23 -9 9 -28 41 -43 69 -15
29 -35 67 -46 83 -10 17 -23 39 -28 51 -5 12 -25 46 -45 77 -34 53 -35 57 -22
89 25 59 22 106 -12 198 -9 25 -9 28 -11 80 -1 55 -8 59 -56 33z m-17 -318 c1
-11 -7 -35 -18 -54 -20 -32 -22 -33 -40 -16 -29 27 -34 54 -14 76 23 26 68 22
72 -6z m-450 -823 c2 -7 -3 -12 -12 -12 -9 0 -16 7 -16 16 0 17 22 14 28 -4z
m-78 -82 c0 -5 -5 -10 -11 -10 -5 0 -7 5 -4 10 3 6 8 10 11 10 2 0 4 -4 4 -10z
m30 -110 c0 -5 -4 -10 -10 -10 -5 0 -10 5 -10 10 0 6 5 10 10 10 6 0 10 -4 10
-10z m30 -220 c0 -5 -4 -10 -10 -10 -5 0 -10 5 -10 10 0 6 5 10 10 10 6 0 10
-4 10 -10z m1530 -75 c0 -8 -4 -15 -9 -15 -13 0 -22 16 -14 24 11 11 23 6 23
-9z m-1480 -95 c0 -5 -4 -10 -10 -10 -5 0 -10 5 -10 10 0 6 5 10 10 10 6 0 10
-4 10 -10z m1775 -50 c-3 -5 -10 -10 -16 -10 -5 0 -9 5 -9 10 0 6 7 10 16 10
8 0 12 -4 9 -10z m195 -35 c0 -8 -7 -15 -15 -15 -8 0 -15 7 -15 15 0 8 7 15
15 15 8 0 15 -7 15 -15z m-1018 -20 c0 -5 -5 -11 -11 -13 -6 -2 -11 4 -11 13
0 9 5 15 11 13 6 -2 11 -8 11 -13z m908 -39 c0 -3 -4 -8 -10 -11 -5 -3 -10 -1
-10 4 0 6 5 11 10 11 6 0 10 -2 10 -4z m-1570 -66 c0 -5 -2 -10 -4 -10 -3 0
-8 5 -11 10 -3 6 -1 10 4 10 6 0 11 -4 11 -10z m-172 -11 c-2 -6 -8 -10 -13
-10 -5 0 -11 4 -13 10 -2 6 4 11 13 11 9 0 15 -5 13 -11z m66 -90 c-3 -5 -10
-7 -15 -3 -5 3 -7 10 -3 15 3 5 10 7 15 3 5 -3 7 -10 3 -15z m26 -125 c0 -8
-4 -12 -10 -9 -5 3 -10 10 -10 16 0 5 5 9 10 9 6 0 10 -7 10 -16z m106 -131
c-10 -10 -19 5 -10 18 6 11 8 11 12 0 2 -7 1 -15 -2 -18z m432 -181 c2 -7 -6
-12 -17 -12 -21 0 -27 11 -14 24 9 9 26 2 31 -12z m62 -82 c0 -21 -15 -27 -25
-10 -7 12 2 30 16 30 5 0 9 -9 9 -20z m-31 -56 c-10 -12 -9 -13 5 -8 9 3 16 2
16 -3 0 -5 -10 -9 -23 -11 -16 -1 -23 4 -23 16 0 10 8 19 19 19 15 2 16 -1 6
-13z m71 -88 c0 -1 -7 -3 -15 -3 -8 0 -15 4 -15 9 0 5 -5 6 -12 2 -7 -4 -8 -3
-4 4 5 9 13 9 27 2 10 -6 19 -12 19 -14z m-150 -246 c0 -5 -4 -10 -10 -10 -5
0 -10 5 -10 10 0 6 5 10 10 10 6 0 10 -4 10 -10z m-3252 -77 c2 -8 -5 -13 -17
-13 -12 0 -21 6 -21 16 0 18 31 15 38 -3z m-298 -83 c0 -5 -4 -10 -10 -10 -5
0 -10 5 -10 10 0 6 5 10 10 10 6 0 10 -4 10 -10z m632 -5 c0 -5 -5 -11 -11
-13 -6 -2 -11 4 -11 13 0 9 5 15 11 13 6 -2 11 -8 11 -13z m-568 -16 c-3 -5
-10 -7 -15 -3 -5 3 -7 10 -3 15 3 5 10 7 15 3 5 -3 7 -10 3 -15z m356 11 c0
-5 -4 -10 -9 -10 -6 0 -13 5 -16 10 -3 6 1 10 9 10 9 0 16 -4 16 -10z m-120
-88 c0 -20 -5 -44 -10 -52 -7 -11 -10 2 -10 43 0 36 4 56 10 52 6 -3 10 -23
10 -43z m243 -7 l54 -44 22 23 c11 12 21 28 21 35 0 7 5 9 10 6 6 -4 8 -10 5
-15 -3 -5 7 -12 22 -15 56 -12 75 -25 70 -45 -3 -13 -1 -17 9 -13 8 3 14 -1
14 -11 0 -9 -6 -16 -14 -16 -8 0 -16 -13 -18 -30 -4 -25 2 -36 39 -69 51 -47
55 -77 17 -118 -18 -19 -25 -23 -22 -11 3 17 -159 182 -164 167 -2 -4 -25 -14
-51 -21 -41 -11 -49 -10 -57 2 -17 27 -12 43 13 37 86 -22 86 -23 5 56 -89 84
-101 122 -41 126 6 1 36 -19 66 -44z m87 31 c0 -21 -21 -31 -30 -15 -5 7 -6
17 -4 21 9 14 34 9 34 -6z m3190 -16 c0 -5 -4 -10 -10 -10 -5 0 -10 5 -10 10
0 6 5 10 10 10 6 0 10 -4 10 -10z m-3972 -32 c-6 -18 -28 -21 -28 -4 0 9 7 16
16 16 9 0 14 -5 12 -12z m559 -99 c-67 -16 -88 -17 -75 -4 3 3 32 10 66 16 50
9 60 14 55 27 -4 12 -1 12 10 -3 15 -19 13 -20 -56 -36z m-207 16 c0 -8 -7
-15 -15 -15 -16 0 -20 12 -8 23 11 12 23 8 23 -8z m-485 -15 c3 -5 -1 -10 -9
-10 -9 0 -16 5 -16 10 0 6 4 10 9 10 6 0 13 -4 16 -10z m355 -10 c0 -5 -7 -10
-15 -10 -8 0 -15 5 -15 10 0 6 7 10 15 10 8 0 15 -4 15 -10z m345 -30 c-28
-12 -47 -12 -40 0 3 6 18 10 33 9 24 0 25 -1 7 -9z m-485 -15 c0 -8 -7 -15
-15 -15 -16 0 -20 12 -8 23 11 12 23 8 23 -8z m718 -150 c-1 -65 -2 -70 -5
-26 -3 40 -9 59 -24 69 -14 9 -19 25 -19 55 l1 42 24 -30 c22 -27 25 -38 23
-110z m-567 98 c54 -14 97 -28 95 -30 -5 -5 -176 36 -195 47 -26 15 -6 12 100
-17z m439 -58 c-14 -17 -30 -20 -30 -6 0 5 8 12 18 14 9 3 19 5 21 6 2 0 -2
-6 -9 -14z m180 -71 c0 -43 -4 -74 -10 -74 -6 0 -10 34 -10 81 0 51 4 78 10
74 6 -3 10 -40 10 -81z m-585 46 c3 -5 1 -10 -4 -10 -6 0 -11 5 -11 10 0 6 2
10 4 10 3 0 8 -4 11 -10z m705 -25 c0 -8 -4 -15 -10 -15 -5 0 -10 7 -10 15 0
8 5 15 10 15 6 0 10 -7 10 -15z m-990 -15 c0 -5 -4 -10 -10 -10 -5 0 -10 5
-10 10 0 6 5 10 10 10 6 0 10 -4 10 -10z m-110 -126 c0 -8 -7 -14 -15 -14 -15
0 -21 21 -9 33 10 9 24 -2 24 -19z m138 -4 c-14 -22 -24 -19 -15 5 4 8 11 15
17 15 6 0 6 -7 -2 -20z m598 -71 c10 -17 -13 -36 -27 -22 -12 12 -4 33 11 33
5 0 12 -5 16 -11z m-156 -66 c0 -31 5 -40 25 -50 20 -9 25 -8 25 2 0 7 10 11
23 11 12 -1 31 5 42 13 20 16 20 16 1 -6 -10 -13 -23 -20 -27 -17 -5 3 -7 -1
-4 -8 3 -7 -19 -40 -49 -73 l-55 -60 -1 113 c0 68 4 112 10 112 6 0 10 -17 10
-37z m210 11 c0 -8 -4 -12 -10 -9 -5 3 -10 10 -10 16 0 5 5 9 10 9 6 0 10 -7
10 -16z m1461 -373 c0 -91 0 -262 -1 -378 -1 -128 3 -213 8 -213 6 0 42 38 82
85 40 47 76 85 81 85 5 0 12 -7 15 -15 4 -9 -29 -57 -89 -129 l-96 -114 0
-191 c0 -105 3 -191 8 -191 7 0 149 165 198 229 11 15 13 15 28 0 15 -15 6
-28 -110 -165 l-125 -149 5 -265 c3 -146 7 -331 10 -412 l6 -148 -25 0 -26 0
-2 542 -3 542 -67 21 c-115 34 -123 70 -10 43 37 -9 71 -13 75 -9 4 4 7 48 5
97 l-3 89 -132 35 c-135 36 -172 53 -139 66 9 4 62 -6 118 -21 55 -14 109 -24
119 -22 11 3 19 0 19 -6 0 -7 3 -8 10 -1 7 7 9 117 8 309 l-3 298 -57 16 c-99
28 -108 64 -11 43 30 -6 60 -9 65 -5 6 3 8 27 6 54 -5 53 -3 60 18 52 11 -4
14 -38 15 -172z m179 49 c0 -5 -4 -10 -10 -10 -5 0 -10 5 -10 10 0 6 5 10 10
10 6 0 10 -4 10 -10z m-310 -270 c0 -5 -4 -10 -10 -10 -5 0 -10 5 -10 10 0 6
5 10 10 10 6 0 10 -4 10 -10z m490 -325 c0 -9 -6 -12 -15 -9 -8 4 -12 10 -9
15 8 14 24 10 24 -6z m-110 -25 c0 -5 -2 -10 -4 -10 -3 0 -8 5 -11 10 -3 6 -1
10 4 10 6 0 11 -4 11 -10z m135 -290 c3 -5 1 -10 -4 -10 -6 0 -11 5 -11 10 0
6 2 10 4 10 3 0 8 -4 11 -10z m-71 -91 c-3 -5 -10 -7 -15 -3 -5 3 -7 10 -3 15
3 5 10 7 15 3 5 -3 7 -10 3 -15z m111 -99 c-5 -8 -11 -8 -17 -2 -6 6 -7 16 -3
22 5 8 11 8 17 2 6 -6 7 -16 3 -22z m-705 -10 c0 -5 -4 -10 -10 -10 -5 0 -10
5 -10 10 0 6 5 10 10 10 6 0 10 -4 10 -10z m510 -100 c0 -5 -2 -10 -4 -10 -3
0 -8 5 -11 10 -3 6 -1 10 4 10 6 0 11 -4 11 -10z m-422 -141 c-2 -6 -8 -10
-13 -10 -5 0 -11 4 -13 10 -2 6 4 11 13 11 9 0 15 -5 13 -11z m310 -51 c-6
-18 -28 -21 -28 -4 0 9 7 16 16 16 9 0 14 -5 12 -12z m62 -78 c0 -5 -4 -10
-10 -10 -5 0 -10 5 -10 10 0 6 5 10 10 10 6 0 10 -4 10 -10z m-423 -136 c-9
-9 -28 6 -21 18 4 6 10 6 17 -1 6 -6 8 -13 4 -17z m361 -5 c-2 -6 -8 -10 -13
-10 -5 0 -11 4 -13 10 -2 6 4 11 13 11 9 0 15 -5 13 -11z m-2481 -175 c-3 -3
-12 -4 -19 -1 -8 3 -5 6 6 6 11 1 17 -2 13 -5z m310 -156 c26 -38 44 -70 41
-73 -3 -3 -22 21 -43 52 -21 32 -60 87 -87 123 l-50 65 47 -50 c25 -27 67 -80
92 -117z"/>
<path d="M6130 7114 c0 -33 24 -74 44 -74 9 0 6 14 -10 47 -31 60 -34 62 -34
27z"/>
<path d="M7010 7011 c0 -12 39 -25 48 -16 7 7 -17 25 -35 25 -7 0 -13 -4 -13
-9z"/>
<path d="M8320 7000 c0 -5 24 -10 54 -10 30 0 58 5 61 10 4 6 -17 10 -54 10
-34 0 -61 -4 -61 -10z"/>
<path d="M6281 6973 c-1 -6 3 -23 9 -37 7 -21 6 -26 -5 -26 -8 0 -15 -4 -15
-10 0 -11 8 -12 31 -2 15 6 14 11 -2 47 -10 22 -18 35 -18 28z"/>
<path d="M6090 6955 c-19 -23 -8 -50 20 -50 18 0 26 6 28 22 4 29 -30 49 -48
28z"/>
<path d="M6420 6945 c-10 -12 -10 -18 0 -30 16 -19 39 -19 46 0 6 15 -11 45
-26 45 -4 0 -13 -7 -20 -15z"/>
<path d="M6229 6847 c14 -18 66 -23 76 -7 3 5 -7 9 -22 8 -15 -1 -37 3 -48 7
-18 8 -19 7 -6 -8z"/>
<path d="M7110 6674 c-25 -14 -55 -31 -67 -39 -24 -16 -38 -6 -45 30 -3 19 -4
19 -27 -4 -16 -16 -21 -31 -18 -48 4 -22 -3 -30 -44 -56 -52 -32 -64 -62 -33
-88 12 -10 22 -10 48 -1 44 16 44 16 40 -15 l-4 -28 11 28 c11 28 29 37 29 14
0 -8 14 -11 46 -8 36 2 49 -1 56 -13 14 -24 31 -20 18 4 -9 16 -7 26 9 47 27
34 26 39 -6 57 l-28 14 28 11 c15 6 33 15 40 21 6 6 20 16 30 23 18 12 18 14
0 45 -21 38 -25 38 -83 6z m-52 -153 c-4 -45 -28 -54 -28 -11 0 17 -7 42 -16
55 -25 38 -5 54 23 19 16 -20 23 -39 21 -63z"/>
<path d="M7900 6630 c-12 -23 -20 -59 -20 -87 -1 -63 -17 -133 -37 -155 -27
-31 2 -20 40 15 30 26 36 40 39 77 1 25 -3 61 -10 82 -11 30 -11 42 2 72 20
48 11 46 -14 -4z"/>
<path d="M7990 6621 c-12 -17 -17 -31 -12 -31 12 0 46 50 39 56 -3 3 -15 -9
-27 -25z"/>
<path d="M3290 6572 c0 -17 28 -22 108 -20 l77 1 -75 7 c-41 3 -83 10 -92 14
-11 5 -18 4 -18 -2z"/>
<path d="M4893 6564 c7 -7 158 -6 166 1 2 3 -35 5 -84 5 -49 0 -86 -3 -82 -6z"/>
<path d="M4128 6533 c7 -3 16 -2 19 1 4 3 -2 6 -13 5 -11 0 -14 -3 -6 -6z"/>
<path d="M4120 6275 c-7 -9 -11 -17 -9 -20 3 -2 10 5 17 15 14 24 10 26 -8 5z"/>
<path d="M8700 5920 c0 -5 -6 -7 -14 -4 -8 3 -33 -4 -55 -16 -103 -52 -169
-150 -178 -262 -4 -51 0 -78 21 -141 14 -42 26 -85 26 -94 0 -8 -34 -51 -75
-94 -114 -119 -155 -218 -155 -370 0 -145 44 -252 151 -366 71 -75 68 -89 -40
-162 -190 -130 -314 -379 -298 -600 3 -42 11 -100 17 -128 l12 -53 51 0 c29 0
92 -7 140 -16 49 -8 94 -13 100 -11 6 2 -25 9 -68 17 -82 13 -105 23 -86 34 6
4 11 1 11 -6 0 -10 2 -10 9 1 6 9 11 10 15 2 4 -6 13 -11 19 -11 7 0 6 4 -3
10 -12 8 -13 11 -2 22 8 7 12 9 11 3 -5 -24 13 -42 37 -37 18 3 22 8 15 15 -6
6 -11 15 -11 20 0 6 11 -2 25 -17 14 -15 30 -24 35 -21 13 8 13 25 -1 25 -5 0
-7 -5 -3 -12 5 -7 3 -8 -6 -3 -10 6 -9 11 5 22 29 20 41 14 37 -18 -1 -4 14
-7 33 -7 24 0 35 5 35 15 0 10 -6 12 -20 8 -12 -4 -20 -2 -20 5 0 6 4 9 9 5 5
-3 13 -1 16 5 5 8 11 8 20 0 9 -8 20 -8 31 -2 12 7 22 6 30 -2 34 -29 44 -36
55 -36 9 0 9 3 0 14 -23 28 27 30 58 2 10 -9 21 -13 24 -9 4 3 8 -7 9 -23 1
-16 4 -2 8 31 l7 60 3 -75 c2 -41 4 -90 4 -108 1 -21 8 -37 19 -43 16 -9 17
17 17 496 0 330 3 505 10 505 6 0 10 -132 11 -372 1 -205 3 -386 5 -403 2 -16
4 -39 5 -50 1 -15 5 -12 15 13 8 17 19 32 25 32 8 0 9 -4 0 -13 -6 -8 -8 -17
-4 -20 3 -4 1 -7 -5 -7 -7 0 -12 -4 -12 -9 0 -6 9 -9 20 -8 14 1 18 6 14 19
-4 13 -1 16 9 12 8 -3 18 -1 22 5 3 6 11 11 16 11 6 0 3 -7 -6 -16 -9 -9 -13
-19 -9 -23 4 -3 9 0 11 6 3 7 14 11 26 9 12 -1 16 -1 10 1 -7 3 -13 9 -13 14
0 6 4 8 9 5 5 -4 12 0 14 6 4 10 6 10 6 0 1 -9 6 -10 20 -3 21 12 48 -10 36
-29 -3 -5 -1 -10 4 -10 6 0 11 5 11 11 0 5 4 7 10 4 6 -4 7 1 3 11 -4 12 -3
15 5 10 7 -4 12 -2 12 6 0 8 3 9 8 2 8 -12 53 -14 46 -2 -9 15 13 8 27 -8 11
-14 13 -14 21 1 6 10 16 14 30 9 16 -5 19 -3 12 7 -6 12 -5 12 9 0 9 -7 27
-11 39 -8 14 4 26 0 34 -11 9 -11 13 -12 14 -4 0 6 5 12 11 12 6 0 8 -8 5 -17
-5 -15 -4 -15 9 1 15 20 15 20 30 0 15 -18 15 -18 8 0 -4 12 -2 17 3 13 6 -3
10 4 11 16 0 31 6 51 18 59 5 4 9 51 10 105 0 162 -58 303 -176 423 -60 61
-139 120 -162 120 -7 0 -20 18 -27 40 -12 36 -11 42 5 60 10 11 24 20 30 20
14 0 97 86 115 119 9 18 9 22 0 16 -7 -4 -4 5 6 21 15 23 16 27 2 16 -13 -10
-17 -10 -22 3 -3 10 1 15 13 15 14 0 24 13 34 45 15 43 15 45 -4 45 -13 0 -19
7 -19 21 0 16 5 20 20 16 28 -7 36 48 22 147 -17 114 -55 189 -146 284 -83 87
-94 117 -55 158 28 30 35 119 10 134 -15 9 -14 11 2 24 15 11 17 22 11 53 -18
102 -82 180 -183 225 -36 16 -74 34 -83 39 -23 12 -98 12 -98 -1z m-110 -100
c0 -5 -5 -10 -11 -10 -5 0 -7 5 -4 10 3 6 8 10 11 10 2 0 4 -4 4 -10z m210
-460 l0 -348 33 -11 c17 -5 51 -15 75 -21 25 -6 42 -17 42 -25 0 -12 -4 -13
-17 -5 -10 6 -47 19 -83 28 l-65 17 -3 363 c-1 243 1 361 8 357 6 -4 10 -130
10 -355z m-67 240 c4 0 7 -4 7 -10 0 -5 -6 -7 -12 -5 -7 2 -32 9 -55 15 -24 6
-43 15 -43 20 0 5 21 3 48 -5 26 -8 50 -15 55 -15z m-178 -110 c-5 -8 -11 -8
-17 -2 -6 6 -7 16 -3 22 5 8 11 8 17 2 6 -6 7 -16 3 -22z m-185 -328 c0 -13
-12 -22 -22 -16 -10 6 -1 24 13 24 5 0 9 -4 9 -8z m459 -41 c-15 -5 -22 6 -14
19 6 9 10 9 16 -1 5 -8 4 -15 -2 -18z m-218 -61 c92 -24 134 -39 127 -45 -6
-6 -196 43 -218 56 -25 14 5 11 91 -11z m489 -60 c0 -5 -5 -10 -11 -10 -5 0
-7 5 -4 10 3 6 8 10 11 10 2 0 4 -4 4 -10z m-300 -243 c0 -107 -5 -199 -10
-207 -6 -10 -10 57 -10 198 0 140 3 211 10 207 6 -4 10 -81 10 -198z m-220
184 c0 -6 -4 -13 -10 -16 -5 -3 -10 1 -10 9 0 9 5 16 10 16 6 0 10 -4 10 -9z
m635 -1 c3 -5 1 -10 -4 -10 -6 0 -11 5 -11 10 0 6 2 10 4 10 3 0 8 -4 11 -10z
m-296 -57 c-8 -9 -16 -10 -22 -4 -13 13 0 31 19 24 11 -4 12 -8 3 -20z m101
-118 c0 -8 -4 -15 -10 -15 -5 0 -10 7 -10 15 0 8 5 15 10 15 6 0 10 -7 10 -15z
m-544 -76 c8 -14 -18 -31 -30 -19 -9 9 0 30 14 30 5 0 12 -5 16 -11z m394 -47
c0 -13 -12 -22 -22 -16 -10 6 -1 24 13 24 5 0 9 -4 9 -8z m-195 -52 c3 -5 -1
-10 -10 -10 -9 0 -13 5 -10 10 3 6 8 10 10 10 2 0 7 -4 10 -10z m-135 -60 c0
-5 -4 -10 -10 -10 -5 0 -10 5 -10 10 0 6 5 10 10 10 6 0 10 -4 10 -10z m210
-55 c0 -8 -7 -15 -15 -15 -8 0 -15 7 -15 15 0 8 7 15 15 15 8 0 15 -7 15 -15z
m-42 -57 c-6 -18 -28 -21 -28 -4 0 9 7 16 16 16 9 0 14 -5 12 -12z m162 -114
c0 -14 -21 -19 -33 -7 -9 9 13 34 24 27 5 -3 9 -12 9 -20z m-470 -90 c0 -17
-22 -14 -28 4 -2 7 3 12 12 12 9 0 16 -7 16 -16z m292 -25 c31 -8 62 -29 43
-29 -25 0 -135 34 -135 42 0 10 11 8 92 -13z m384 -40 c10 -17 -13 -36 -27
-22 -12 12 -4 33 11 33 5 0 12 -5 16 -11z m-366 -39 c0 -5 -4 -10 -10 -10 -5
0 -10 5 -10 10 0 6 5 10 10 10 6 0 10 -4 10 -10z m-388 -72 c-15 -15 -26 -4
-18 18 5 13 9 15 18 6 9 -9 9 -15 0 -24z m864 -5 c-10 -10 -19 5 -10 18 6 11
8 11 12 0 2 -7 1 -15 -2 -18z m-166 2 c0 -8 -7 -15 -15 -15 -16 0 -20 12 -8
23 11 12 23 8 23 -8z m280 5 c0 -5 -4 -10 -10 -10 -5 0 -10 5 -10 10 0 6 5 10
10 10 6 0 10 -4 10 -10z m-580 -90 c0 -13 -5 -18 -15 -14 -16 7 -19 17 -8 27
12 13 23 7 23 -13z m-240 0 c0 -5 -4 -10 -10 -10 -5 0 -10 5 -10 10 0 6 5 10
10 10 6 0 10 -4 10 -10z m-120 -8 c0 -13 -12 -22 -22 -16 -10 6 -1 24 13 24 5
0 9 -4 9 -8z m1030 -97 c0 -8 -4 -15 -10 -15 -5 0 -10 7 -10 15 0 8 5 15 10
15 6 0 10 -7 10 -15z m-250 -65 c0 -5 -4 -10 -10 -10 -5 0 -10 5 -10 10 0 6 5
10 10 10 6 0 10 -4 10 -10z m-597 -14 c7 -18 -1 -26 -25 -26 -11 0 -18 7 -18
20 0 23 35 28 43 6z m567 -30 c0 -2 -8 -10 -17 -17 -16 -13 -17 -12 -4 4 13
16 21 21 21 13z m135 -16 c3 -5 1 -10 -4 -10 -6 0 -11 5 -11 10 0 6 2 10 4 10
3 0 8 -4 11 -10z m87 -4 c7 4 8 2 4 -5 -9 -13 -26 -5 -25 12 0 9 2 8 6 -1 2
-6 10 -9 15 -6z m-1072 -22 c0 -9 -5 -14 -12 -12 -18 6 -21 28 -4 28 9 0 16
-7 16 -16z m360 -4 c0 -22 -8 -25 -30 -10 -13 9 -13 11 0 20 22 15 30 12 30
-10z m-390 -46 c0 -2 -12 -4 -26 -4 -14 0 -23 4 -20 9 6 8 46 4 46 -5z"/>
<path d="M7125 4430 c-13 -6 19 -9 89 -9 60 -1 107 1 105 3 -10 8 -176 14
-194 6z"/>
<path d="M7383 4111 c-182 -62 -263 -268 -179 -455 14 -32 26 -65 26 -73 0 -9
-36 -52 -80 -96 -132 -131 -178 -255 -165 -437 l6 -96 -35 -49 c-95 -134 -140
-241 -155 -374 -35 -319 144 -615 446 -734 34 -13 42 -14 46 -2 4 9 -17 25
-66 48 -126 61 -235 165 -292 277 -36 70 -57 156 -52 206 2 25 0 47 -6 51 -5
3 -3 9 4 14 12 8 11 11 -1 19 -10 6 -11 10 -2 10 6 0 12 5 12 11 0 5 -5 7 -12
3 -7 -4 -8 -3 -4 4 4 6 13 9 21 5 8 -3 15 0 15 6 0 6 5 11 11 11 5 0 7 -4 4
-10 -3 -5 -2 -10 3 -10 6 0 12 7 16 15 3 8 2 14 -2 14 -4 -1 -14 -1 -22 0 -13
1 -13 3 0 10 8 6 18 7 22 5 7 -5 12 11 9 29 -1 5 7 7 18 5 11 -2 19 2 18 7 -1
6 -8 9 -16 8 -8 -1 -20 5 -28 13 -8 8 -11 14 -6 14 5 0 14 -5 20 -11 8 -8 13
-8 18 1 5 8 10 7 18 -4 9 -11 16 -13 27 -6 13 8 12 10 -2 10 -10 0 -17 6 -15
13 1 7 -7 11 -20 9 -16 -2 -23 2 -23 12 0 22 23 20 45 -4 11 -13 27 -18 41
-16 14 3 24 0 24 -7 0 -6 6 -3 13 8 9 11 16 14 21 7 7 -12 -4 -21 -34 -27 -11
-2 -20 1 -20 7 0 6 -3 8 -6 5 -4 -4 -1 -13 5 -21 9 -11 19 -12 37 -6 13 5 31
7 40 3 14 -5 15 -3 4 17 -15 28 2 43 37 29 13 -5 23 -5 23 1 0 4 8 11 18 13
12 3 10 5 -8 7 -14 1 -32 1 -40 0 -10 -1 -9 3 5 13 12 9 22 11 26 6 3 -6 11
-4 18 5 10 11 9 16 -3 23 -13 7 -13 10 4 21 12 7 20 8 20 2 0 -5 -5 -10 -11
-10 -6 0 -7 -5 -2 -12 4 -7 8 -17 8 -22 0 -5 6 -11 14 -14 10 -3 12 0 8 12 -4
9 -2 16 2 16 5 0 12 -6 14 -12 4 -10 6 -10 6 0 1 6 8 12 16 12 20 0 19 10 -2
27 -17 13 -17 13 2 5 11 -4 30 -7 43 -6 12 0 25 -3 29 -9 3 -6 1 -7 -4 -4 -6
4 -13 -2 -16 -13 -7 -25 -2 -25 25 2 13 13 23 17 25 11 2 -6 15 -10 28 -7 13
2 27 0 30 -6 4 -6 10 -8 15 -5 6 4 8 -170 7 -422 l-2 -428 -47 2 c-36 1 -48
-2 -48 -13 0 -8 10 -14 24 -14 51 0 56 -8 56 -81 0 -38 2 -69 4 -69 3 0 16 4
30 10 l26 10 0 381 c0 313 2 384 14 393 7 6 55 61 106 121 114 135 171 195
180 190 9 -5 6 33 -3 41 -10 11 -9 34 2 34 5 0 11 -10 13 -22 3 -21 4 -21 21
-4 9 10 17 12 17 6 0 -6 4 -9 8 -6 5 3 8 -4 8 -16 -1 -12 6 -23 14 -25 11 -4
12 -2 2 5 -15 10 -5 45 10 36 6 -4 5 -10 -3 -15 -11 -7 -10 -9 3 -9 9 0 19 -6
21 -12 3 -7 6 -3 6 8 1 12 9 24 19 27 9 2 25 8 36 12 18 8 18 7 0 -13 -9 -12
-21 -19 -26 -16 -4 3 -8 0 -8 -5 0 -14 17 -14 25 -1 4 6 16 8 28 5 12 -2 16
-2 10 1 -10 4 -9 9 2 21 12 11 13 19 5 28 -6 7 -25 39 -41 72 -29 55 -30 62
-22 128 13 115 7 214 -18 280 -28 77 -46 103 -136 196 -77 81 -87 105 -54 138
31 31 38 51 46 127 9 89 -11 172 -56 238 -35 53 -81 87 -163 120 -31 13 -53
26 -49 29 14 14 -95 5 -144 -12z m177 -61 c0 -5 -4 -10 -10 -10 -5 0 -10 5
-10 10 0 6 5 10 10 10 6 0 10 -4 10 -10z m-38 -492 c1 -233 1 -433 1 -445 0
-13 6 -23 13 -23 8 0 14 -4 14 -9 0 -11 -29 -35 -35 -29 -8 7 -10 928 -2 928
4 0 8 -190 9 -422z m-111 301 c56 -19 56 -29 -1 -14 -28 8 -55 16 -58 19 -9
10 23 7 59 -5z m189 -74 c0 -8 -4 -15 -10 -15 -5 0 -10 7 -10 15 0 8 5 15 10
15 6 0 10 -7 10 -15z m211 -368 c-1 -12 -15 -9 -19 4 -3 6 1 10 8 8 6 -3 11
-8 11 -12z m-219 -29 c-15 -15 -26 -4 -18 18 5 13 9 15 18 6 9 -9 9 -15 0 -24z
m-222 18 c0 -11 -19 -15 -25 -6 -3 5 1 10 9 10 9 0 16 -2 16 -4z m380 -66 c0
-5 -4 -10 -10 -10 -5 0 -10 5 -10 10 0 6 5 10 10 10 6 0 10 -4 10 -10z m0 -90
c0 -5 -4 -10 -10 -10 -5 0 -10 5 -10 10 0 6 5 10 10 10 6 0 10 -4 10 -10z
m-136 -41 c-5 -9 -34 -13 -34 -5 0 2 3 12 6 20 5 13 9 14 20 5 8 -6 11 -15 8
-20z m-464 1 c0 -5 -4 -10 -10 -10 -5 0 -10 5 -10 10 0 6 5 10 10 10 6 0 10
-4 10 -10z m320 -5 c0 -8 -4 -15 -10 -15 -5 0 -10 7 -10 15 0 8 5 15 10 15 6
0 10 -7 10 -15z m312 -10 c0 -5 -5 -11 -11 -13 -6 -2 -11 4 -11 13 0 9 5 15
11 13 6 -2 11 -8 11 -13z m-444 -106 c67 -18 122 -36 122 -42 0 -5 -6 -7 -12
-5 -7 3 -69 20 -138 38 -69 18 -129 37 -135 43 -11 11 -18 12 163 -34z m-258
-124 c0 -8 -7 -15 -15 -15 -8 0 -15 7 -15 15 0 8 7 15 15 15 8 0 15 -7 15 -15z
m528 -18 c2 -10 -3 -17 -12 -17 -18 0 -29 16 -21 31 9 14 29 6 33 -14z m-77
-129 c1 -79 4 -134 6 -122 4 19 8 20 43 14 24 -4 43 -3 51 4 7 6 9 6 6 1 -3
-6 8 -11 25 -12 20 0 26 2 17 7 -7 5 -17 6 -23 3 -5 -3 -6 -1 -2 5 5 9 13 9
27 2 18 -10 23 -6 20 13 -1 5 3 6 8 3 5 -4 17 4 25 16 9 12 16 19 16 14 0 -13
-72 -96 -79 -91 -4 2 -8 -2 -8 -9 0 -15 -132 -176 -145 -176 -4 0 -8 106 -8
235 0 150 4 235 10 235 6 0 11 -55 11 -142z m-61 102 c0 -5 -5 -10 -11 -10 -5
0 -7 5 -4 10 3 6 8 10 11 10 2 0 4 -4 4 -10z m-468 -55 c0 -5 -5 -11 -11 -13
-6 -2 -11 4 -11 13 0 9 5 15 11 13 6 -2 11 -8 11 -13z m453 -98 c7 -6 -2 -7
-24 -3 -65 12 -111 27 -111 35 0 11 121 -18 135 -32z m545 33 c0 -5 -4 -10
-10 -10 -5 0 -10 5 -10 10 0 6 5 10 10 10 6 0 10 -4 10 -10z m-870 -30 c0 -5
-4 -10 -10 -10 -5 0 -10 5 -10 10 0 6 5 10 10 10 6 0 10 -4 10 -10z m471 -25
c-1 -15 -24 -12 -29 3 -3 9 2 13 12 10 10 -1 17 -7 17 -13z m89 1 c-4 -4 -16
-4 -26 2 -16 9 -14 10 8 9 15 -1 23 -6 18 -11z m-276 -73 c-5 -17 -5 -17 9 0
8 9 17 17 20 17 11 0 -4 -28 -17 -33 -18 -7 -40 8 -32 22 11 18 26 13 20 -6z
m-288 -80 c-10 -10 -19 5 -10 18 6 11 8 11 12 0 2 -7 1 -15 -2 -18z m-248 -14
c-2 -6 -8 -10 -13 -10 -5 0 -11 4 -13 10 -2 6 4 11 13 11 9 0 15 -5 13 -11z
m62 -63 c0 -2 -7 -9 -15 -16 -13 -11 -14 -10 -9 4 5 14 24 23 24 12z m-62 -47
c-2 -6 -8 -10 -13 -10 -5 0 -11 4 -13 10 -2 6 4 11 13 11 9 0 15 -5 13 -11z"/>
<path d="M3415 3721 c-3 -5 2 -11 10 -15 8 -3 17 -1 20 3 3 5 -2 11 -10 15 -8
3 -17 1 -20 -3z"/>
<path d="M9170 3676 c0 -2 9 -6 20 -9 11 -3 18 -1 14 4 -5 9 -34 13 -34 5z"/>
<path d="M8528 3646 c-10 -18 -9 -19 3 -9 8 7 25 10 37 6 12 -3 22 -1 22 5 0
5 -11 12 -25 15 -19 3 -29 -1 -37 -17z"/>
<path d="M2376 3594 c-4 -10 -1 -21 6 -26 23 -14 33 -9 12 7 -10 8 -14 15 -7
15 6 0 18 -6 25 -13 11 -10 16 -9 31 5 16 17 16 19 1 25 -9 3 -20 0 -24 -7 -7
-11 -12 -11 -23 -2 -12 10 -16 9 -21 -4z"/>
<path d="M8428 3593 c6 -2 18 -2 25 0 6 3 1 5 -13 5 -14 0 -19 -2 -12 -5z"/>
<path d="M8548 3563 c7 -3 16 -2 19 1 4 3 -2 6 -13 5 -11 0 -14 -3 -6 -6z"/>
<path d="M8581 3556 c2 -2 18 -6 34 -10 22 -5 26 -4 15 4 -14 9 -59 15 -49 6z"/>
<path d="M2682 3504 c-10 -12 -10 -14 2 -14 17 0 30 16 19 23 -5 3 -14 -1 -21
-9z"/>
<path d="M8429 3474 c-59 -18 -133 -83 -167 -148 -37 -70 -38 -188 -3 -256 44
-84 108 -139 196 -166 33 -10 37 -13 20 -19 -63 -21 -122 -54 -154 -86 -158
-152 -95 -422 114 -493 l36 -13 -65 -32 c-178 -87 -230 -299 -111 -453 42 -56
89 -86 169 -109 60 -17 60 -18 21 -18 -108 -3 -273 -70 -364 -149 l-45 -38 56
-66 c73 -85 105 -143 138 -241 20 -59 32 -81 46 -83 20 -3 44 -30 44 -51 0 -9
11 -13 33 -12 17 1 161 -2 319 -6 l287 -8 -6 39 c-14 94 -87 239 -145 290 -58
50 -138 105 -179 123 -24 11 -63 34 -86 50 -35 26 -41 35 -37 58 8 52 25 73
58 73 44 0 12 19 -34 21 l-35 1 45 12 c25 7 59 20 75 30 17 9 23 15 14 12 -19
-5 -76 6 -162 31 -113 32 -181 120 -181 233 0 93 30 205 61 230 31 24 114 50
159 50 18 0 36 5 39 10 3 6 -3 10 -13 10 -27 0 -140 64 -180 103 -73 69 -99
161 -82 285 18 121 54 158 183 187 138 31 196 55 246 106 39 38 58 71 38 63
-19 -7 -27 25 -27 111 0 128 -60 210 -181 250 -55 19 -85 50 -67 72 14 17 -11
16 -73 -3z m145 -225 c19 -15 26 -30 26 -54 0 -37 -37 -75 -74 -75 -20 0 -20
0 2 -16 49 -34 13 -81 -50 -64 -51 15 -89 60 -95 114 -9 75 43 126 63 63 6
-20 7 -19 21 7 13 25 42 44 69 45 6 1 23 -8 38 -20z m16 -2084 c16 -8 36 -25
44 -37 32 -45 24 -48 -104 -48 -124 0 -130 2 -109 41 27 51 112 73 169 44z"/>
<path d="M2840 3440 c0 -6 7 -10 15 -10 8 0 15 2 15 4 0 2 -7 6 -15 10 -8 3
-15 1 -15 -4z"/>
<path d="M3285 3220 c-22 -16 -65 -36 -95 -45 -82 -25 -98 -32 -110 -54 -9
-18 -2 -17 68 13 75 31 164 85 177 106 9 14 5 12 -40 -20z"/>
<path d="M7834 2745 c-17 -13 -17 -14 -2 -15 9 0 20 5 23 11 11 17 0 20 -21 4z"/>
<path d="M8529 2680 l-24 -19 31 -1 c60 0 90 -75 48 -121 l-19 -22 40 6 c68
11 93 64 60 127 -27 53 -92 67 -136 30z"/>
<path d="M7284 2615 c5 -13 2 -16 -9 -11 -9 3 -14 2 -11 -3 3 -5 17 -8 32 -8
15 0 21 3 14 7 -6 4 -11 11 -10 16 1 5 -4 10 -11 13 -8 2 -10 -2 -5 -14z"/>
<path d="M7147 2550 c3 -11 9 -17 15 -14 5 3 4 12 -3 20 -16 19 -18 18 -12 -6z"/>
<path d="M7004 2515 c-4 -8 -13 -15 -22 -15 -8 0 -12 -3 -9 -6 3 -4 2 -15 -4
-25 -8 -16 -6 -18 10 -16 27 4 39 17 17 17 -9 0 -14 5 -11 10 4 6 11 7 17 4 6
-4 8 -2 5 3 -4 6 0 16 8 23 13 11 14 10 9 -6 -5 -16 -4 -16 5 -4 15 21 14 30
-4 30 -9 0 -18 -7 -21 -15z"/>
<path d="M3013 2137 c-35 -6 -63 -15 -63 -20 0 -12 70 -1 113 17 37 16 34 16
-50 3z"/>
<path d="M8528 2120 c-9 -6 -23 -23 -31 -39 -15 -29 -14 -30 9 -21 75 29 128
-69 68 -125 l-27 -25 57 0 c53 0 58 2 76 33 25 40 25 61 1 114 -28 61 -103 92
-153 63z"/>
<path d="M5175 2041 c-7 -12 59 -21 150 -20 67 1 73 2 40 9 -67 13 -184 19
-190 11z"/>
<path d="M5170 1971 c0 -20 5 -21 90 -21 50 0 90 4 90 9 0 16 -11 18 -97 26
-80 7 -83 6 -83 -14z"/>
<path d="M2340 1916 c0 -32 59 -139 102 -186 23 -25 36 -38 31 -30 -6 8 -39
64 -72 125 -34 60 -61 101 -61 91z"/>
<path d="M5161 1899 c-8 -23 -7 -24 62 -31 74 -8 92 -3 81 25 -4 11 -18 17
-39 17 -18 0 -47 3 -64 6 -26 6 -32 3 -40 -17z"/>
<path d="M7590 1829 c-9 -35 -18 -53 -31 -56 -11 -3 -19 -9 -19 -14 0 -5 7 -6
15 -3 22 9 19 -13 -19 -155 -19 -69 -37 -139 -40 -154 -4 -15 -11 -25 -16 -22
-21 13 -50 -58 -50 -122 0 -34 -4 -65 -10 -68 -5 -3 -10 0 -10 7 0 51 -78 619
-86 627 -7 8 -4 -83 6 -124 8 -37 41 -347 55 -515 l6 -75 -85 171 c-77 158
-118 227 -210 356 -19 26 -36 53 -39 60 -2 7 -7 11 -10 7 -4 -3 22 -64 57
-136 35 -72 67 -141 71 -153 8 -25 -19 -62 -41 -53 -8 3 -14 -1 -14 -10 0 -8
-16 -45 -35 -82 -43 -81 -76 -165 -65 -165 5 0 14 14 22 32 7 17 27 61 44 97
l32 66 45 -95 c25 -52 51 -121 58 -152 7 -32 14 -58 17 -58 5 0 65 42 72 50 3
4 32 16 65 28 74 27 190 31 255 8 25 -9 48 -16 51 -16 4 0 14 18 23 40 21 54
27 51 10 -5 -7 -25 -9 -45 -5 -45 5 0 12 11 15 25 4 14 25 69 48 122 46 107
58 170 30 151 -10 -6 -32 -28 -49 -50 -18 -22 -33 -37 -33 -34 0 12 70 146
107 204 20 31 63 92 95 135 32 42 55 77 51 77 -15 0 -99 -92 -172 -190 -60
-79 -128 -202 -190 -340 -13 -31 -9 25 20 235 34 256 28 310 -26 223 -14 -24
-24 -34 -21 -23 2 11 10 63 16 115 6 52 14 103 16 113 3 9 1 17 -4 17 -6 0
-16 -23 -22 -51z m-347 -559 c14 -47 20 -77 14 -66 -7 10 -36 51 -65 90 l-53
71 47 -50 47 -50 -28 50 c-16 28 -33 58 -39 67 -7 12 -6 21 4 34 13 15 16 13
31 -22 10 -22 29 -77 42 -124z"/>
<path d="M7628 1773 c6 -2 18 -2 25 0 6 3 1 5 -13 5 -14 0 -19 -2 -12 -5z"/>
<path d="M5323 1677 c-4 -7 -6 -25 -5 -42 1 -16 -2 -36 -7 -44 -6 -9 -5 -23 2
-38 7 -16 7 -30 -1 -47 -9 -20 -8 -27 4 -37 10 -8 14 -24 12 -41 -3 -16 1 -33
9 -39 7 -6 13 -24 13 -39 0 -15 9 -35 20 -45 11 -10 20 -25 20 -34 0 -9 9 -22
20 -29 11 -7 20 -19 20 -27 0 -8 9 -15 20 -15 10 0 24 -9 30 -20 6 -11 16 -17
25 -14 9 4 21 2 28 -4 13 -11 53 -10 102 3 43 11 156 73 180 97 l20 21 -23
-15 c-32 -22 -93 -7 -160 39 -37 25 -136 123 -124 123 4 0 2 4 -4 8 -16 11
-144 206 -144 220 0 4 -11 12 -25 19 -19 8 -27 8 -32 0z"/>
<path d="M2003 1560 c-85 -51 -163 -169 -185 -276 l-11 -54 -40 0 c-51 0 -37
-16 19 -23 42 -5 59 0 59 18 2 105 48 208 131 293 34 34 61 62 61 62 -1 0 -16
-9 -34 -20z"/>
<path d="M3948 1003 c7 -3 16 -2 19 1 4 3 -2 6 -13 5 -11 0 -14 -3 -6 -6z"/>
<path d="M7182 973 c-11 -16 -31 -52 -46 -80 l-26 -53 -138 -1 c-230 -1 -215
-19 31 -35 84 -6 97 -9 97 -25 0 -12 -9 -19 -27 -22 -23 -3 -21 -4 10 -6 35
-1 37 1 37 29 0 40 34 134 65 182 29 43 26 52 -3 11z"/>
<path d="M7983 898 c-15 -18 -35 -58 -29 -58 2 0 13 16 25 35 20 35 22 46 4
23z"/>
</g>
</svg>
