<?xml version="1.0" standalone="no"?>
<!DOCTYPE svg PUBLIC "-//W3C//DTD SVG 20010904//EN"
 "http://www.w3.org/TR/2001/REC-SVG-20010904/DTD/svg10.dtd">
<svg version="1.0" xmlns="http://www.w3.org/2000/svg"
 width="874.000000pt" height="900.000000pt" viewBox="0 0 874.000000 900.000000"
 preserveAspectRatio="xMidYMid meet">

<g transform="translate(0.000000,900.000000) scale(0.100000,-0.100000)"
fill="#000000" stroke="none">
<path d="M4080 8604 c-19 -2 -100 -11 -180 -20 -784 -85 -1519 -384 -2140
-870 -117 -91 -112 -87 -267 -226 -330 -296 -657 -718 -882 -1140 -530 -996
-635 -2216 -282 -3293 355 -1088 1131 -1984 2156 -2491 217 -107 283 -135 495
-209 501 -176 1064 -256 1606 -226 356 19 623 63 954 156 435 122 926 359
1293 623 405 292 765 657 1039 1057 531 773 790 1690 739 2619 -38 702 -227
1337 -577 1933 -99 167 -288 437 -385 548 -244 279 -322 358 -524 531 -573
491 -1269 818 -2025 953 -231 41 -376 53 -685 56 -165 2 -316 1 -335 -1z m590
-418 c279 -48 533 -148 760 -301 123 -83 158 -112 289 -239 201 -194 366 -460
461 -740 l38 -111 90 -6 c107 -8 159 -32 191 -89 20 -37 21 -49 21 -430 0
-438 0 -440 -69 -485 -20 -13 -318 -118 -663 -233 l-627 -209 -48 -53 c-59
-66 -109 -90 -188 -90 -138 0 -235 99 -235 237 0 116 67 203 174 228 51 12 69
11 162 -10 26 -6 119 22 479 141 l447 149 -5 290 c-5 318 -14 390 -79 580
-179 529 -649 939 -1198 1043 -490 94 -994 -46 -1365 -378 -109 -98 -141 -111
-218 -89 -104 28 -145 165 -77 252 12 14 61 60 110 101 296 249 636 401 1007
451 131 17 418 13 543 -9z m-184 -617 c173 -17 309 -56 461 -134 239 -124 429
-313 550 -551 96 -189 132 -328 140 -550 5 -142 4 -153 -13 -162 -11 -5 -217
-76 -459 -156 -242 -81 -460 -159 -485 -173 -64 -38 -143 -122 -175 -188 -45
-91 -54 -159 -55 -397 l0 -218 -91 0 c-254 0 -538 95 -739 246 -106 80 -181
155 -264 264 -287 380 -335 872 -126 1310 69 145 176 286 305 400 197 174 444
281 710 309 116 12 121 12 241 0z m194 -2860 c574 -46 1299 -289 1755 -586
230 -151 326 -242 394 -372 79 -154 75 -104 79 -873 l3 -688 -2540 0 -2541 0
0 641 c0 413 4 666 11 712 21 138 99 288 200 382 27 25 113 87 191 138 440
287 897 475 1413 581 384 79 652 96 1035 65z m-2605 -2820 c6 -6 11 -81 13
-169 l3 -160 204 0 205 0 2 162 3 162 26 15 c22 12 29 12 55 0 l29 -14 3 -381
c2 -409 3 -407 -50 -419 -19 -5 -32 -1 -47 14 -20 20 -21 32 -21 191 l0 170
-204 0 -205 0 -3 -176 c-3 -160 -5 -177 -22 -190 -26 -19 -49 -18 -75 4 -21
17 -21 23 -21 397 l-1 380 22 18 c23 19 63 16 84 -4z m1480 -1 c6 -6 10 -150
10 -394 0 -370 -1 -386 -19 -400 -26 -18 -51 -18 -70 2 -14 13 -16 64 -16 399
l0 384 22 15 c22 16 53 13 73 -6z m1363 6 l22 -15 0 -380 c0 -366 -1 -380 -20
-399 -37 -37 -90 -15 -90 36 0 29 -11 31 -28 4 -39 -62 -195 -87 -277 -43 -75
40 -117 108 -135 218 -13 82 -1 157 38 228 33 62 70 93 134 112 92 27 162 14
228 -42 l40 -35 0 151 c0 144 1 151 22 165 12 9 27 16 33 16 6 0 21 -7 33 -16z
m1500 0 c22 -15 22 -19 22 -240 0 -129 4 -224 9 -222 5 2 60 50 122 107 140
128 152 136 177 122 11 -6 22 -20 25 -32 6 -24 0 -31 -137 -156 l-79 -72 43
-48 c24 -26 77 -82 117 -123 75 -77 87 -105 57 -134 -26 -27 -46 -18 -108 47
-34 35 -97 101 -141 146 l-80 84 -3 -129 c-2 -101 -6 -132 -19 -146 -20 -22
-42 -23 -71 -2 l-22 15 0 380 c0 366 1 380 20 399 24 24 38 25 68 4z m-3281
-239 c63 -19 96 -44 128 -99 29 -50 50 -143 41 -180 l-6 -26 -210 0 c-235 0
-221 5 -199 -73 34 -125 176 -163 310 -81 49 29 62 34 74 24 30 -25 18 -59
-32 -91 -104 -65 -223 -75 -321 -25 -60 31 -95 68 -124 131 -32 68 -32 208 0
275 59 126 200 186 339 145z m1021 -17 c49 -30 68 -52 100 -118 23 -48 27 -68
27 -150 0 -78 -4 -104 -23 -145 -47 -102 -117 -148 -227 -149 -80 -1 -124 17
-167 67 l-27 32 6 -102 c8 -140 -1 -191 -34 -204 -19 -7 -32 -6 -49 6 l-24 15
0 370 0 370 25 16 c37 24 75 6 75 -36 0 -37 7 -37 44 0 16 16 47 36 70 44 57
22 156 14 204 -16z m1283 16 c101 -30 175 -143 167 -256 l-3 -43 -210 -5 -210
-5 3 -33 c4 -57 28 -99 73 -129 36 -24 53 -28 108 -28 59 0 73 5 127 38 65 39
89 40 100 4 17 -55 -152 -135 -261 -124 -61 6 -139 38 -173 70 -68 63 -101
181 -81 291 30 177 185 272 360 220z m644 -6 c66 -21 92 -45 81 -74 -7 -18
-40 -18 -91 1 -55 19 -159 19 -201 -1 -38 -18 -52 -53 -36 -88 8 -19 32 -29
129 -56 187 -52 215 -73 221 -173 3 -53 0 -67 -20 -97 -13 -19 -44 -46 -68
-60 -112 -63 -391 -2 -365 79 8 28 43 27 97 -1 57 -30 171 -37 216 -14 57 29
69 86 27 129 -19 18 -55 32 -133 52 -139 34 -183 58 -200 110 -16 48 -8 111
17 141 58 71 201 94 326 52z"/>
<path d="M4584 1574 c-67 -33 -103 -150 -84 -266 11 -60 18 -78 50 -112 38
-40 40 -41 107 -41 81 0 111 18 145 85 34 67 33 197 -2 260 -34 60 -80 90
-139 90 -25 0 -60 -7 -77 -16z"/>
<path d="M2970 1568 c-43 -30 -69 -66 -79 -111 -8 -35 -8 -36 23 -39 17 -2 91
-2 164 0 128 3 132 4 132 25 -1 40 -38 106 -72 127 -47 28 -125 27 -168 -2z"/>
<path d="M3945 1576 c-66 -29 -95 -92 -95 -204 0 -137 63 -222 165 -222 60 0
106 29 135 86 21 41 25 62 25 139 0 106 -18 153 -74 191 -41 27 -107 32 -156
10z"/>
<path d="M5284 1576 c-17 -8 -40 -26 -52 -41 -22 -28 -49 -101 -41 -110 7 -7
319 -9 326 -2 8 9 -26 97 -46 121 -39 45 -123 59 -187 32z"/>
</g>
</svg>
